<mxfile host="app.diagrams.net" modified="2024-06-30T22:48:40.037Z" agent="Mozilla/5.0 (Windows NT 10.0; Win64; x64; rv:127.0) Gecko/20100101 Firefox/127.0" etag="_xbCI_RThVMSyq3a7ZZh" version="24.6.4" type="github">
  <diagram name="Page-1" id="4BB7kH6bFGlw7Jnn56DD">
    <mxGraphModel dx="2085" dy="679" grid="1" gridSize="10" guides="1" tooltips="1" connect="1" arrows="1" fold="1" page="1" pageScale="1" pageWidth="850" pageHeight="1100" math="0" shadow="0">
      <root>
        <mxCell id="0" />
        <mxCell id="1" parent="0" />
        <mxCell id="2DZdzJSbuo17JhRIMtqj-5" value=" User  " style="swimlane;fontStyle=0;childLayout=stackLayout;horizontal=1;startSize=30;horizontalStack=0;resizeParent=1;resizeParentMax=0;resizeLast=0;collapsible=1;marginBottom=0;whiteSpace=wrap;html=1;" vertex="1" parent="1">
          <mxGeometry x="320" y="185" width="140" height="190" as="geometry" />
        </mxCell>
        <mxCell id="2DZdzJSbuo17JhRIMtqj-6" value="&lt;div&gt;- userId: int &lt;br&gt;&lt;/div&gt;&lt;div&gt;- username: String&lt;/div&gt;&lt;div&gt;- password: String&lt;/div&gt;&lt;div&gt; - email: String &lt;br&gt;&lt;/div&gt;&lt;div&gt;- role: String  &lt;/div&gt;" style="text;strokeColor=none;fillColor=none;align=left;verticalAlign=middle;spacingLeft=4;spacingRight=4;overflow=hidden;points=[[0,0.5],[1,0.5]];portConstraint=eastwest;rotatable=0;whiteSpace=wrap;html=1;" vertex="1" parent="2DZdzJSbuo17JhRIMtqj-5">
          <mxGeometry y="30" width="140" height="90" as="geometry" />
        </mxCell>
        <mxCell id="2DZdzJSbuo17JhRIMtqj-7" value="&lt;div&gt; + login() &lt;br&gt;&lt;/div&gt;&lt;div&gt;+ resetPassword() &lt;br&gt;&lt;/div&gt;&lt;div&gt; + logout()   &lt;/div&gt;" style="text;strokeColor=none;fillColor=none;align=left;verticalAlign=middle;spacingLeft=4;spacingRight=4;overflow=hidden;points=[[0,0.5],[1,0.5]];portConstraint=eastwest;rotatable=0;whiteSpace=wrap;html=1;" vertex="1" parent="2DZdzJSbuo17JhRIMtqj-5">
          <mxGeometry y="120" width="140" height="70" as="geometry" />
        </mxCell>
        <mxCell id="2DZdzJSbuo17JhRIMtqj-9" value="MarketData" style="swimlane;fontStyle=0;childLayout=stackLayout;horizontal=1;startSize=30;horizontalStack=0;resizeParent=1;resizeParentMax=0;resizeLast=0;collapsible=1;marginBottom=0;whiteSpace=wrap;html=1;" vertex="1" parent="1">
          <mxGeometry x="40" y="470" width="140" height="220" as="geometry" />
        </mxCell>
        <mxCell id="2DZdzJSbuo17JhRIMtqj-10" value="&lt;div&gt;- dataId: int  &lt;/div&gt;&lt;div&gt;- symbol: String&lt;/div&gt;&lt;div&gt; - date: Date&lt;/div&gt;&lt;div&gt;- open: float&lt;/div&gt;&lt;div&gt; - close: float &lt;br&gt;&lt;/div&gt;&lt;div&gt;- high: float &lt;br&gt;&lt;/div&gt;&lt;div&gt;- low: float &lt;br&gt;&lt;/div&gt;&lt;div&gt;- volume: int  &lt;/div&gt;&lt;div&gt;&lt;br&gt;&lt;/div&gt;" style="text;strokeColor=none;fillColor=none;align=left;verticalAlign=middle;spacingLeft=4;spacingRight=4;overflow=hidden;points=[[0,0.5],[1,0.5]];portConstraint=eastwest;rotatable=0;whiteSpace=wrap;html=1;" vertex="1" parent="2DZdzJSbuo17JhRIMtqj-9">
          <mxGeometry y="30" width="140" height="120" as="geometry" />
        </mxCell>
        <mxCell id="2DZdzJSbuo17JhRIMtqj-11" value="&lt;div&gt; + getData() &lt;br&gt;&lt;/div&gt;&lt;div&gt;|+ updateData()&lt;/div&gt;&lt;div&gt;+ visualizeData()  &lt;/div&gt;" style="text;strokeColor=none;fillColor=none;align=left;verticalAlign=middle;spacingLeft=4;spacingRight=4;overflow=hidden;points=[[0,0.5],[1,0.5]];portConstraint=eastwest;rotatable=0;whiteSpace=wrap;html=1;" vertex="1" parent="2DZdzJSbuo17JhRIMtqj-9">
          <mxGeometry y="150" width="140" height="70" as="geometry" />
        </mxCell>
        <mxCell id="2DZdzJSbuo17JhRIMtqj-12" value="TradingStrategy" style="swimlane;fontStyle=0;childLayout=stackLayout;horizontal=1;startSize=30;horizontalStack=0;resizeParent=1;resizeParentMax=0;resizeLast=0;collapsible=1;marginBottom=0;whiteSpace=wrap;html=1;" vertex="1" parent="1">
          <mxGeometry x="580" y="170" width="140" height="220" as="geometry" />
        </mxCell>
        <mxCell id="2DZdzJSbuo17JhRIMtqj-13" value="&lt;div&gt;- strategyId: int&lt;/div&gt;&lt;div&gt;- userId: int &lt;br&gt;&lt;/div&gt;&lt;div&gt;- name: String &lt;br&gt;&lt;/div&gt;&lt;div&gt;- parameters: JSON &lt;br&gt;&lt;/div&gt;&lt;div&gt;- createdDate: Date&lt;/div&gt;&lt;div&gt;- modifiedDate: Date&lt;/div&gt;" style="text;strokeColor=none;fillColor=none;align=left;verticalAlign=middle;spacingLeft=4;spacingRight=4;overflow=hidden;points=[[0,0.5],[1,0.5]];portConstraint=eastwest;rotatable=0;whiteSpace=wrap;html=1;" vertex="1" parent="2DZdzJSbuo17JhRIMtqj-12">
          <mxGeometry y="30" width="140" height="120" as="geometry" />
        </mxCell>
        <mxCell id="2DZdzJSbuo17JhRIMtqj-14" value="&lt;div&gt;+ createStrategy()&lt;/div&gt;&lt;div&gt;+ modifyStrategy()&lt;/div&gt;&lt;div&gt;+ deleteStrategy()&lt;/div&gt;&lt;div&gt;+ backtestStrategy()&lt;/div&gt;" style="text;strokeColor=none;fillColor=none;align=left;verticalAlign=middle;spacingLeft=4;spacingRight=4;overflow=hidden;points=[[0,0.5],[1,0.5]];portConstraint=eastwest;rotatable=0;whiteSpace=wrap;html=1;" vertex="1" parent="2DZdzJSbuo17JhRIMtqj-12">
          <mxGeometry y="150" width="140" height="70" as="geometry" />
        </mxCell>
        <mxCell id="2DZdzJSbuo17JhRIMtqj-15" value="Analysis" style="swimlane;fontStyle=0;childLayout=stackLayout;horizontal=1;startSize=30;horizontalStack=0;resizeParent=1;resizeParentMax=0;resizeLast=0;collapsible=1;marginBottom=0;whiteSpace=wrap;html=1;" vertex="1" parent="1">
          <mxGeometry x="50" y="170" width="140" height="220" as="geometry" />
        </mxCell>
        <mxCell id="2DZdzJSbuo17JhRIMtqj-16" value="&lt;div&gt;- analysisId: int&lt;/div&gt;&lt;div&gt;- userId: int&lt;/div&gt;&lt;div&gt;- marketDataId: int&lt;/div&gt;&lt;div&gt;- parameters: JSON&lt;/div&gt;&lt;div&gt;- result: JSON&lt;/div&gt;&lt;div&gt;- createdDate: Date&lt;/div&gt;" style="text;strokeColor=none;fillColor=none;align=left;verticalAlign=middle;spacingLeft=4;spacingRight=4;overflow=hidden;points=[[0,0.5],[1,0.5]];portConstraint=eastwest;rotatable=0;whiteSpace=wrap;html=1;" vertex="1" parent="2DZdzJSbuo17JhRIMtqj-15">
          <mxGeometry y="30" width="140" height="120" as="geometry" />
        </mxCell>
        <mxCell id="2DZdzJSbuo17JhRIMtqj-17" value="&lt;div&gt;+ performAnalysis()&lt;/div&gt;&lt;div&gt; + saveAnalysis()&lt;/div&gt;&lt;div&gt;+ getAnalysis()&lt;/div&gt;" style="text;strokeColor=none;fillColor=none;align=left;verticalAlign=middle;spacingLeft=4;spacingRight=4;overflow=hidden;points=[[0,0.5],[1,0.5]];portConstraint=eastwest;rotatable=0;whiteSpace=wrap;html=1;" vertex="1" parent="2DZdzJSbuo17JhRIMtqj-15">
          <mxGeometry y="150" width="140" height="70" as="geometry" />
        </mxCell>
        <mxCell id="2DZdzJSbuo17JhRIMtqj-18" value="Report" style="swimlane;fontStyle=0;childLayout=stackLayout;horizontal=1;startSize=30;horizontalStack=0;resizeParent=1;resizeParentMax=0;resizeLast=0;collapsible=1;marginBottom=0;whiteSpace=wrap;html=1;" vertex="1" parent="1">
          <mxGeometry x="-190" y="170" width="140" height="220" as="geometry" />
        </mxCell>
        <mxCell id="2DZdzJSbuo17JhRIMtqj-19" value="&lt;div&gt;- reportId: int&lt;/div&gt;&lt;div&gt;- analysisId: int&lt;/div&gt;&lt;div&gt;- userId: int&lt;/div&gt;&lt;div&gt;- content: String&lt;/div&gt;&lt;div&gt;- createdDate: Date&lt;/div&gt;" style="text;strokeColor=none;fillColor=none;align=left;verticalAlign=middle;spacingLeft=4;spacingRight=4;overflow=hidden;points=[[0,0.5],[1,0.5]];portConstraint=eastwest;rotatable=0;whiteSpace=wrap;html=1;" vertex="1" parent="2DZdzJSbuo17JhRIMtqj-18">
          <mxGeometry y="30" width="140" height="120" as="geometry" />
        </mxCell>
        <mxCell id="2DZdzJSbuo17JhRIMtqj-20" value="&lt;div&gt;+ generateReport()&lt;/div&gt;&lt;div&gt;+ downloadReport()&lt;/div&gt;" style="text;strokeColor=none;fillColor=none;align=left;verticalAlign=middle;spacingLeft=4;spacingRight=4;overflow=hidden;points=[[0,0.5],[1,0.5]];portConstraint=eastwest;rotatable=0;whiteSpace=wrap;html=1;" vertex="1" parent="2DZdzJSbuo17JhRIMtqj-18">
          <mxGeometry y="150" width="140" height="70" as="geometry" />
        </mxCell>
        <mxCell id="2DZdzJSbuo17JhRIMtqj-21" value="Authentication" style="swimlane;fontStyle=0;childLayout=stackLayout;horizontal=1;startSize=30;horizontalStack=0;resizeParent=1;resizeParentMax=0;resizeLast=0;collapsible=1;marginBottom=0;whiteSpace=wrap;html=1;" vertex="1" parent="1">
          <mxGeometry x="310" y="448" width="140" height="220" as="geometry" />
        </mxCell>
        <mxCell id="2DZdzJSbuo17JhRIMtqj-22" value="&lt;div&gt;- authId: int&lt;/div&gt;&lt;div&gt;- userId: int &lt;br&gt;&lt;/div&gt;&lt;div&gt;- token: String&lt;/div&gt;&lt;div&gt;- expiryDate: Date&lt;/div&gt;" style="text;strokeColor=none;fillColor=none;align=left;verticalAlign=middle;spacingLeft=4;spacingRight=4;overflow=hidden;points=[[0,0.5],[1,0.5]];portConstraint=eastwest;rotatable=0;whiteSpace=wrap;html=1;" vertex="1" parent="2DZdzJSbuo17JhRIMtqj-21">
          <mxGeometry y="30" width="140" height="120" as="geometry" />
        </mxCell>
        <mxCell id="2DZdzJSbuo17JhRIMtqj-23" value="&lt;div&gt;+ generateToken()&lt;/div&gt;&lt;div&gt;+ validateToken()&lt;/div&gt;&lt;div&gt;+ invalidateToken()&lt;/div&gt;" style="text;strokeColor=none;fillColor=none;align=left;verticalAlign=middle;spacingLeft=4;spacingRight=4;overflow=hidden;points=[[0,0.5],[1,0.5]];portConstraint=eastwest;rotatable=0;whiteSpace=wrap;html=1;" vertex="1" parent="2DZdzJSbuo17JhRIMtqj-21">
          <mxGeometry y="150" width="140" height="70" as="geometry" />
        </mxCell>
        <mxCell id="2DZdzJSbuo17JhRIMtqj-28" value="1" style="text;html=1;align=center;verticalAlign=middle;resizable=0;points=[];autosize=1;strokeColor=none;fillColor=none;" vertex="1" parent="1">
          <mxGeometry x="355" y="375" width="30" height="30" as="geometry" />
        </mxCell>
        <mxCell id="2DZdzJSbuo17JhRIMtqj-29" value="1" style="text;html=1;align=center;verticalAlign=middle;resizable=0;points=[];autosize=1;strokeColor=none;fillColor=none;" vertex="1" parent="1">
          <mxGeometry x="355" y="418" width="30" height="30" as="geometry" />
        </mxCell>
        <mxCell id="2DZdzJSbuo17JhRIMtqj-30" value="" style="endArrow=none;html=1;rounded=0;entryX=-0.014;entryY=0.817;entryDx=0;entryDy=0;entryPerimeter=0;" edge="1" parent="1" target="2DZdzJSbuo17JhRIMtqj-13">
          <mxGeometry width="50" height="50" relative="1" as="geometry">
            <mxPoint x="460" y="300" as="sourcePoint" />
            <mxPoint x="510" y="250" as="targetPoint" />
          </mxGeometry>
        </mxCell>
        <mxCell id="2DZdzJSbuo17JhRIMtqj-31" value="1" style="text;html=1;align=center;verticalAlign=middle;resizable=0;points=[];autosize=1;strokeColor=none;fillColor=none;" vertex="1" parent="1">
          <mxGeometry x="455" y="298" width="30" height="30" as="geometry" />
        </mxCell>
        <mxCell id="2DZdzJSbuo17JhRIMtqj-32" value="&lt;b&gt;&lt;font style=&quot;font-size: 16px;&quot;&gt;*&lt;/font&gt;&lt;/b&gt;" style="text;html=1;align=center;verticalAlign=middle;resizable=0;points=[];autosize=1;strokeColor=none;fillColor=none;" vertex="1" parent="1">
          <mxGeometry x="535" y="298" width="30" height="30" as="geometry" />
        </mxCell>
        <mxCell id="2DZdzJSbuo17JhRIMtqj-33" value="" style="endArrow=none;html=1;rounded=0;entryX=-0.007;entryY=0.878;entryDx=0;entryDy=0;entryPerimeter=0;" edge="1" parent="1" target="2DZdzJSbuo17JhRIMtqj-6">
          <mxGeometry width="50" height="50" relative="1" as="geometry">
            <mxPoint x="192" y="298" as="sourcePoint" />
            <mxPoint x="310" y="296" as="targetPoint" />
          </mxGeometry>
        </mxCell>
        <mxCell id="2DZdzJSbuo17JhRIMtqj-34" value="1" style="text;html=1;align=center;verticalAlign=middle;resizable=0;points=[];autosize=1;strokeColor=none;fillColor=none;" vertex="1" parent="1">
          <mxGeometry x="285" y="288" width="30" height="30" as="geometry" />
        </mxCell>
        <mxCell id="2DZdzJSbuo17JhRIMtqj-35" value="&lt;b&gt;&lt;font style=&quot;font-size: 16px;&quot;&gt;*&lt;/font&gt;&lt;/b&gt;" style="text;html=1;align=center;verticalAlign=middle;resizable=0;points=[];autosize=1;strokeColor=none;fillColor=none;" vertex="1" parent="1">
          <mxGeometry x="200" y="300" width="30" height="30" as="geometry" />
        </mxCell>
        <mxCell id="2DZdzJSbuo17JhRIMtqj-38" value="&lt;b&gt;&lt;font style=&quot;font-size: 16px;&quot;&gt;*&lt;/font&gt;&lt;/b&gt;" style="text;html=1;align=center;verticalAlign=middle;resizable=0;points=[];autosize=1;strokeColor=none;fillColor=none;" vertex="1" parent="1">
          <mxGeometry x="110" y="390" width="30" height="30" as="geometry" />
        </mxCell>
        <mxCell id="2DZdzJSbuo17JhRIMtqj-39" value="1" style="text;html=1;align=center;verticalAlign=middle;resizable=0;points=[];autosize=1;strokeColor=none;fillColor=none;" vertex="1" parent="1">
          <mxGeometry x="95" y="448" width="30" height="30" as="geometry" />
        </mxCell>
        <mxCell id="2DZdzJSbuo17JhRIMtqj-40" value="" style="endArrow=none;html=1;rounded=0;" edge="1" parent="1">
          <mxGeometry width="50" height="50" relative="1" as="geometry">
            <mxPoint x="-50" y="282" as="sourcePoint" />
            <mxPoint x="40" y="282" as="targetPoint" />
          </mxGeometry>
        </mxCell>
        <mxCell id="2DZdzJSbuo17JhRIMtqj-41" value="1" style="text;html=1;align=center;verticalAlign=middle;resizable=0;points=[];autosize=1;strokeColor=none;fillColor=none;" vertex="1" parent="1">
          <mxGeometry x="25" y="278" width="30" height="30" as="geometry" />
        </mxCell>
        <mxCell id="2DZdzJSbuo17JhRIMtqj-42" value="1" style="text;html=1;align=center;verticalAlign=middle;resizable=0;points=[];autosize=1;strokeColor=none;fillColor=none;" vertex="1" parent="1">
          <mxGeometry x="-55" y="278" width="30" height="30" as="geometry" />
        </mxCell>
        <mxCell id="2DZdzJSbuo17JhRIMtqj-43" value="" style="endArrow=none;html=1;rounded=0;" edge="1" parent="1">
          <mxGeometry width="50" height="50" relative="1" as="geometry">
            <mxPoint x="110" y="170" as="sourcePoint" />
            <mxPoint x="650" y="160" as="targetPoint" />
            <Array as="points">
              <mxPoint x="110" y="90" />
              <mxPoint x="650" y="90" />
            </Array>
          </mxGeometry>
        </mxCell>
        <mxCell id="2DZdzJSbuo17JhRIMtqj-44" value="&lt;b&gt;&lt;font style=&quot;font-size: 16px;&quot;&gt;*&lt;/font&gt;&lt;/b&gt;" style="text;html=1;align=center;verticalAlign=middle;resizable=0;points=[];autosize=1;strokeColor=none;fillColor=none;" vertex="1" parent="1">
          <mxGeometry x="105" y="138" width="30" height="30" as="geometry" />
        </mxCell>
        <mxCell id="2DZdzJSbuo17JhRIMtqj-45" value="&lt;b&gt;&lt;font style=&quot;font-size: 16px;&quot;&gt;*&lt;/font&gt;&lt;/b&gt;" style="text;html=1;align=center;verticalAlign=middle;resizable=0;points=[];autosize=1;strokeColor=none;fillColor=none;" vertex="1" parent="1">
          <mxGeometry x="615" y="118" width="30" height="30" as="geometry" />
        </mxCell>
        <mxCell id="2DZdzJSbuo17JhRIMtqj-46" value="contain" style="text;html=1;align=center;verticalAlign=middle;resizable=0;points=[];autosize=1;strokeColor=none;fillColor=none;" vertex="1" parent="1">
          <mxGeometry x="45" y="420" width="60" height="30" as="geometry" />
        </mxCell>
        <mxCell id="2DZdzJSbuo17JhRIMtqj-48" value="1" style="endArrow=open;html=1;endSize=12;startArrow=diamondThin;startSize=14;startFill=1;edgeStyle=orthogonalEdgeStyle;align=left;verticalAlign=bottom;rounded=0;" edge="1" parent="1">
          <mxGeometry x="-1" y="3" relative="1" as="geometry">
            <mxPoint x="110" y="390" as="sourcePoint" />
            <mxPoint x="110" y="470" as="targetPoint" />
          </mxGeometry>
        </mxCell>
        <mxCell id="2DZdzJSbuo17JhRIMtqj-49" value="&lt;b&gt;1&lt;/b&gt;" style="text;html=1;align=center;verticalAlign=middle;resizable=0;points=[];autosize=1;strokeColor=none;fillColor=none;" vertex="1" parent="1">
          <mxGeometry x="115" y="438" width="30" height="30" as="geometry" />
        </mxCell>
        <mxCell id="2DZdzJSbuo17JhRIMtqj-50" value="1" style="endArrow=open;html=1;endSize=12;startArrow=diamondThin;startSize=14;startFill=1;edgeStyle=orthogonalEdgeStyle;align=left;verticalAlign=bottom;rounded=0;" edge="1" parent="1">
          <mxGeometry x="-1" y="3" relative="1" as="geometry">
            <mxPoint x="389.5" y="370" as="sourcePoint" />
            <mxPoint x="389.5" y="450" as="targetPoint" />
          </mxGeometry>
        </mxCell>
        <mxCell id="2DZdzJSbuo17JhRIMtqj-51" value="contain" style="text;html=1;align=center;verticalAlign=middle;resizable=0;points=[];autosize=1;strokeColor=none;fillColor=none;" vertex="1" parent="1">
          <mxGeometry x="390" y="400" width="60" height="30" as="geometry" />
        </mxCell>
        <mxCell id="2DZdzJSbuo17JhRIMtqj-52" value="generate" style="text;html=1;align=center;verticalAlign=middle;resizable=0;points=[];autosize=1;strokeColor=none;fillColor=none;" vertex="1" parent="1">
          <mxGeometry x="-55" y="248" width="70" height="30" as="geometry" />
        </mxCell>
        <mxCell id="2DZdzJSbuo17JhRIMtqj-53" value="perform" style="text;html=1;align=center;verticalAlign=middle;resizable=0;points=[];autosize=1;strokeColor=none;fillColor=none;" vertex="1" parent="1">
          <mxGeometry x="210" y="258" width="60" height="30" as="geometry" />
        </mxCell>
        <mxCell id="2DZdzJSbuo17JhRIMtqj-54" value="perform" style="text;html=1;align=center;verticalAlign=middle;resizable=0;points=[];autosize=1;strokeColor=none;fillColor=none;" vertex="1" parent="1">
          <mxGeometry x="480" y="258" width="60" height="30" as="geometry" />
        </mxCell>
      </root>
    </mxGraphModel>
  </diagram>
</mxfile>
